<svg width="30" height="28" viewBox="0 0 30 28" fill="none" xmlns="http://www.w3.org/2000/svg">
<g id="ic:round-warning">
<path id="Vector" d="M5.58764 23.2768H24.4123C26.3373 23.2768 27.5372 21.2473 26.5747 19.631L17.1624 3.82057C16.1999 2.20428 13.8 2.20428 12.8375 3.82057L3.42518 19.631C2.4627 21.2473 3.66268 23.2768 5.58764 23.2768ZM15 14.77C14.3125 14.77 13.75 14.2232 13.75 13.5548V11.1243C13.75 10.4559 14.3125 9.90899 15 9.90899C15.6875 9.90899 16.2499 10.4559 16.2499 11.1243V13.5548C16.2499 14.2232 15.6875 14.77 15 14.77ZM16.2499 19.631H13.75V17.2005H16.2499V19.631Z" fill="#CF0000"/>
</g>
</svg>
