<svg width="24" height="22" viewBox="0 0 24 22" fill="none" xmlns="http://www.w3.org/2000/svg">
<path d="M3.37976 21.0555H21.5075C23.3612 21.0555 24.5168 19.0454 23.5899 17.4444L14.5261 1.78425C13.5992 0.183326 11.2881 0.183326 10.3612 1.78425L1.29735 17.4444C0.370502 19.0454 1.52606 21.0555 3.37976 21.0555ZM12.4437 12.6296C11.7816 12.6296 11.2399 12.088 11.2399 11.4259V9.01851C11.2399 8.35647 11.7816 7.81481 12.4437 7.81481C13.1057 7.81481 13.6474 8.35647 13.6474 9.01851V11.4259C13.6474 12.088 13.1057 12.6296 12.4437 12.6296ZM13.6474 17.4444H11.2399V15.037H13.6474V17.4444Z" fill="white"/>
</svg>
